<?xml version="1.0" encoding="utf-8"?>
<!-- Svg Vector Icons : http://www.onlinewebfonts.com/icon -->
<!DOCTYPE svg PUBLIC "-//W3C//DTD SVG 1.1//EN" "http://www.w3.org/Graphics/SVG/1.1/DTD/svg11.dtd">
<svg version="1.1" xmlns="http://www.w3.org/2000/svg" xmlns:xlink="http://www.w3.org/1999/xlink" fill="#426696" x="0px" y="0px" viewBox="0 0 1000 1000" enable-background="new 0 0 1000 1000" xml:space="preserve">
<metadata> Svg Vector Icons : http://www.onlinewebfonts.com/icon </metadata>
<g><g transform="translate(0.000000,511.000000) scale(0.100000,-0.100000)"><path d="M5598.5,4916.6c-109.8-94.1-109.8-98-121.5-658.7c-15.7-635.2,19.6-819.5,168.6-886.2c141.2-66.7,188.2-58.8,309.8,35.3l101.9,78.4v682.3v682.3l-101.9,78.4C5818.1,5034.2,5731.8,5030.3,5598.5,4916.6z"/><path d="M1747.9,3301.1c-152.9-196.1-109.8-270.5,450.9-807.7c478.4-462.7,568.6-501.9,741.1-325.4c188.2,184.3,145.1,270.5-364.7,776.4c-419.6,415.6-478.4,458.8-607.8,458.8C1861.6,3403.1,1806.7,3375.6,1747.9,3301.1z"/><path d="M8649.1,2563.9L7810,1724.8l-235.3,172.5c-529.4,392.1-1094,572.5-1792,572.5c-666.6,0-1180.3-160.8-1725.3-529.4c-1215.6-835.2-1650.8-2501.7-999.9-3854.5c74.5-156.8,200-364.7,274.5-462.7c74.5-101.9,137.2-196.1,137.2-215.7s-396-415.6-882.3-882.3c-482.3-470.5-890.1-886.2-901.9-929.3c-62.7-200,192.1-447,372.5-364.7c43.1,19.6,478.4,423.5,972.4,901.9l890.1,866.6l196.1-129.4c992-654.8,2348.8-643,3364.4,23.5C8860.9-2204.2,9253-251.5,8331.5,1117L8210,1297.4l843.1,850.9c748.9,748.9,847,862.7,847,972.4c0,164.7-117.6,282.3-286.2,282.3C9500,3403.1,9398.1,3312.9,8649.1,2563.9z M6370.9,1826.7c223.5-54.9,694.1-270.6,823.4-376.4l98-82.4L5567.1-357.4c-1721.4-1725.3-1725.3-1729.2-1792-1639c-101.9,133.3-294.1,537.2-345.1,733.3C3234-545.6,3351.7,199.5,3751.6,795.5C4328,1662,5355.4,2065.9,6370.9,1826.7z M7978.6,552.4c486.2-948.9,298-2117.4-450.9-2858.5c-470.5-462.7-1043-694-1744.9-698c-458.8,0-705.8,54.9-1133.2,258.8l-329.4,156.8L6041.6-867.1c945,945,1737.1,1717.5,1760.6,1709.6C7821.8,834.7,7904.1,705.3,7978.6,552.4z"/><path d="M175.5-478.9c-98-98-102-278.4-3.9-396.1C246.1-969,261.8-969,912.7-969c600,0,674.4,7.9,748.9,74.5c105.9,98,109.8,309.8,3.9,415.7c-70.6,70.6-129.4,78.4-745,78.4S246.1-408.3,175.5-478.9z"/></g></g>
</svg>